<?xml version="1.0" encoding="iso-8859-1"?>
<!-- Generator: Adobe Illustrator 18.0.0, SVG Export Plug-In . SVG Version: 6.00 Build 0)  -->
<!DOCTYPE svg PUBLIC "-//W3C//DTD SVG 1.1//EN" "http://www.w3.org/Graphics/SVG/1.1/DTD/svg11.dtd">
<svg version="1.1" id="Capa_1" xmlns="http://www.w3.org/2000/svg" xmlns:xlink="http://www.w3.org/1999/xlink" x="0px" y="0px"
	 viewBox="0 0 470.942 470.942" style="enable-background:new 0 0 470.942 470.942;" xml:space="preserve">
<g>
	<path d="M313.159,32.178c-20.555-20.544-47.864-31.971-76.897-32.176c-29.065-0.194-56.598,11.144-77.558,31.956
		c-21.347,21.196-33.104,49.3-33.104,79.133v223.178c0,15.881,12.919,28.801,28.8,28.801h50.441l-4.647,70.183
		c-0.644,9.724,2.806,19.381,9.465,26.495s16.066,11.194,25.811,11.194s19.151-4.08,25.81-11.194
		c6.659-7.114,10.108-16.771,9.465-26.495l-4.647-70.183h22.273v1.325c0,4.752,1.868,9.204,5.259,12.536
		c3.317,3.261,7.684,5.045,12.327,5.045c0.105,0,0.211-0.001,0.316-0.003c9.521-0.168,17.268-8.21,17.268-17.927v-1.837
		c12.509-3.135,21.8-14.474,21.8-27.94v-224.39C345.341,80.537,333.913,52.943,313.159,32.178z M168.569,41.893
		C186.7,23.889,210.441,14,235.49,14c0.224,0,0.45,0.001,0.674,0.003c25.332,0.179,49.162,10.15,67.096,28.075
		c18.108,18.118,28.081,42.197,28.081,67.802v201.5h-152.63c-3.866,0-7,3.134-7,7v9.25c0,2.344-1.907,4.25-4.25,4.25
		s-4.25-1.906-4.25-4.25v-9.25c0-3.866-3.134-7-7-7h-16.61V111.091C139.601,85.016,149.889,60.441,168.569,41.893z M256.775,434.178
		c0.395,5.959-1.635,11.642-5.716,16.002s-9.617,6.762-15.589,6.762c-5.972,0-11.508-2.401-15.589-6.762s-6.111-10.043-5.716-16.002
		l4.709-71.108h33.193L256.775,434.178z M316.541,349.07c-3.866,0-7,3.134-7,7v7.977c0,2.096-1.609,3.896-3.513,3.929
		c-1.282-0.004-2.184-0.635-2.586-1.029c-0.4-0.393-1.071-1.247-1.071-2.551v-8.325c0-3.866-3.134-7-7-7h-140.97
		c-8.161,0-14.8-6.64-14.8-14.801v-8.89h9.61v2.25c0,10.063,8.187,18.25,18.25,18.25s18.25-8.187,18.25-18.25v-2.25h145.63v8.89
		C331.341,342.43,324.702,349.07,316.541,349.07z"/>
	<path d="M235.471,35.124c40.843,0,74.072,33.229,74.072,74.072v83.184c0,3.866,3.134,7,7,7s7-3.134,7-7v-83.184
		c0-48.563-39.509-88.072-88.072-88.072c-3.866,0-7,3.134-7,7S231.605,35.124,235.471,35.124z"/>
	<path d="M316.543,213.379c-3.866,0-7,3.134-7,7v35.585c0,3.866,3.134,7,7,7s7-3.134,7-7v-35.585
		C323.543,216.513,320.409,213.379,316.543,213.379z"/>
</g>
<g>
</g>
<g>
</g>
<g>
</g>
<g>
</g>
<g>
</g>
<g>
</g>
<g>
</g>
<g>
</g>
<g>
</g>
<g>
</g>
<g>
</g>
<g>
</g>
<g>
</g>
<g>
</g>
<g>
</g>
</svg>
