<?xml version="1.0" encoding="iso-8859-1"?>
<!-- Generator: Adobe Illustrator 18.0.0, SVG Export Plug-In . SVG Version: 6.00 Build 0)  -->
<!DOCTYPE svg PUBLIC "-//W3C//DTD SVG 1.1//EN" "http://www.w3.org/Graphics/SVG/1.1/DTD/svg11.dtd">
<svg version="1.1" id="Capa_1" xmlns="http://www.w3.org/2000/svg" xmlns:xlink="http://www.w3.org/1999/xlink" x="0px" y="0px"
	 viewBox="0 0 440.205 440.205" style="enable-background:new 0 0 440.205 440.205;" xml:space="preserve">
<path d="M348.41,158.641c1.912-8.981,2.895-18.183,2.895-27.441C351.305,58.856,292.449,0,220.106,0
	C147.762,0,88.906,58.856,88.906,131.199c0,9.256,0.983,18.456,2.894,27.437c-5.316,3.712-8.809,9.866-8.809,16.827v2.419
	c0,9.721,6.802,17.868,15.892,19.976l8.515,82.456c0.369,3.568,3.375,6.281,6.963,6.281h10.453l17.274,147.424
	c0.414,3.527,3.402,6.186,6.953,6.186h142.123c3.551,0,6.539-2.659,6.952-6.186l17.274-147.424h10.449
	c3.588,0,6.595-2.712,6.963-6.281l8.515-82.455c9.092-2.106,15.896-10.254,15.896-19.977v-2.419
	C357.213,168.505,353.724,162.354,348.41,158.641z M220.106,14c64.624,0,117.199,52.575,117.199,117.199
	c0,8.009-0.822,15.967-2.421,23.742H105.327c-1.599-7.776-2.421-15.734-2.421-23.742C102.906,66.575,155.482,14,220.106,14z
	 M113.015,198.406h214.172l-5.25,50.841H118.265L113.015,198.406z M295.351,337.321l-24.471-24.471l26.252-26.252h4.162
	L295.351,337.321z M138.911,286.598h4.168l26.252,26.252l-24.476,24.476L138.911,286.598z M220.106,363.624l30.976,30.975
	l-30.976,30.976L189.131,394.6L220.106,363.624z M179.231,384.7l-30.976-30.975l30.976-30.976l30.976,30.975L179.231,384.7z
	 M230.005,353.725l30.976-30.976l30.976,30.975l-30.976,30.976L230.005,353.725z M220.106,343.825L189.13,312.85l26.252-26.252
	h9.447l26.252,26.252L220.106,343.825z M195.583,286.598l-16.352,16.352l-16.353-16.352H195.583z M169.331,394.6l-15.903,15.903
	l-4.221-36.026L169.331,394.6z M179.231,404.499l21.706,21.706h-43.412L179.231,404.499z M260.982,404.499l21.706,21.706h-43.412
	L260.982,404.499z M270.881,394.6l20.116-20.116l-4.219,36.012L270.881,394.6z M260.981,302.95l-16.352-16.352h32.704
	L260.981,302.95z M120.677,272.596l-0.966-9.349H320.49l-0.965,9.349H120.677z M343.213,177.883c0,3.597-2.926,6.522-6.522,6.522
	H103.514c-3.597,0-6.522-2.926-6.522-6.522v-2.419c0-3.597,2.926-6.522,6.522-6.522h233.176c3.597,0,6.522,2.926,6.522,6.522
	V177.883z"/>
<g>
</g>
<g>
</g>
<g>
</g>
<g>
</g>
<g>
</g>
<g>
</g>
<g>
</g>
<g>
</g>
<g>
</g>
<g>
</g>
<g>
</g>
<g>
</g>
<g>
</g>
<g>
</g>
<g>
</g>
</svg>
