<?xml version='1.0' encoding='iso-8859-1'?>
<svg version="1.1" xmlns="http://www.w3.org/2000/svg" viewBox="0 0 470 470" xmlns:xlink="http://www.w3.org/1999/xlink" enable-background="new 0 0 470 470">
  <g>
    <path d="m235.082,344.937c-60.654,0-110-49.346-110-110 0-4.143-3.357-7.5-7.5-7.5s-7.5,3.357-7.5,7.5c0,68.925 56.075,125 125,125 4.143,0 7.5-3.357 7.5-7.5s-3.357-7.5-7.5-7.5z"/>
    <path d="m312.814,146.514c2.533-3.276 1.931-7.987-1.347-10.521-22.05-17.047-48.463-26.057-76.385-26.057-4.143,0-7.5,3.357-7.5,7.5s3.357,7.5 7.5,7.5c24.57,0 47.812,7.927 67.211,22.924 1.365,1.056 2.979,1.566 4.582,1.566 2.242,0.001 4.461-1 5.939-2.912z"/>
    <path d="m323.506,157.206c-3.277,2.533-3.88,7.243-1.347,10.521 14.996,19.398 22.923,42.64 22.923,67.21 0,29.382-11.442,57.005-32.219,77.781-2.929,2.93-2.929,7.678 0,10.607 1.465,1.464 3.385,2.196 5.304,2.196s3.839-0.732 5.304-2.196c23.609-23.609 36.611-55 36.611-88.389 0-27.921-9.01-54.335-26.056-76.384-2.534-3.278-7.246-3.879-10.52-1.346z"/>
    <path d="m467.804,118.079c-5.982-5.981-7.321-10.041-9.016-15.181-1.946-5.899-4.151-12.586-12.654-21.09-8.504-8.503-15.19-10.709-21.09-12.654-5.14-1.695-9.2-3.034-15.182-9.016-5.982-5.982-7.321-10.043-9.017-15.183-1.945-5.899-4.151-12.586-12.654-21.09-8.504-8.503-15.19-10.708-21.09-12.654-5.14-1.694-9.199-3.033-15.181-9.016-1.642-1.641-3.947-2.429-6.25-2.137-2.302,0.293-4.338,1.635-5.516,3.634-1.243,2.109-27.851,47.872-28.96,96.261-22.497-12.736-48.469-20.018-76.114-20.018-21.413,0-41.824,4.366-60.394,12.252-0.493,0.156-0.971,0.366-1.43,0.627-54.786,23.925-93.176,78.62-93.176,142.121 0,27.704 7.313,53.729 20.1,76.259-48.478,1.038-94.373,27.713-96.488,28.959-1.999,1.178-3.341,3.215-3.634,5.517-0.292,2.302 0.496,4.609 2.137,6.25 5.982,5.981 7.321,10.041 9.016,15.181 1.946,5.899 4.151,12.586 12.654,21.09 8.504,8.503 15.19,10.709 21.09,12.654 5.141,1.695 9.2,3.034 15.182,9.016 5.982,5.982 7.321,10.043 9.017,15.183 1.945,5.899 4.151,12.586 12.654,21.09 8.504,8.503 15.19,10.708 21.09,12.654 5.14,1.694 9.199,3.033 15.181,9.016 1.416,1.415 3.327,2.196 5.304,2.196 0.314,0 0.631-0.02 0.946-0.06 2.302-0.293 4.339-1.635 5.517-3.634 1.245-2.115 27.922-48.005 28.96-96.479 22.534,12.792 48.565,20.109 76.276,20.109 21.309,0 41.627-4.324 60.124-12.138 0.522-0.16 1.028-0.382 1.512-0.658 54.886-23.882 93.364-78.63 93.364-142.204 0-27.653-7.287-53.633-20.03-76.134 48.385-1.112 94.146-27.716 96.254-28.958 1.999-1.178 3.341-3.214 3.634-5.516 0.293-2.3-0.495-4.608-2.136-6.249zm-346.697,332.732c-5.089-3.491-9.482-4.94-13.51-6.269-5.14-1.694-9.199-3.033-15.181-9.016-5.982-5.981-7.321-10.041-9.017-15.181-1.946-5.899-4.151-12.586-12.654-21.091-8.504-8.503-15.19-10.709-21.09-12.654-5.141-1.695-9.2-3.034-15.182-9.017-5.982-5.981-7.321-10.041-9.016-15.181-1.328-4.027-2.777-8.421-6.269-13.51 16.109-8.071 54.342-24.777 90.821-22.517 1.134,1.546 2.29,3.074 3.479,4.576l-48.944,32.883c-3.438,2.311-4.353,6.97-2.043,10.408 1.448,2.154 3.818,3.318 6.232,3.318 1.438,0 2.893-0.413 4.176-1.275l50.527-33.946c1.379,1.433 2.786,2.84 4.219,4.22l-33.945,50.533c-2.31,3.438-1.395,8.099 2.043,10.408 1.284,0.862 2.737,1.275 4.176,1.275 2.414,0 4.785-1.164 6.232-3.318l32.882-48.947c1.504,1.19 3.033,2.349 4.582,3.485 2.259,36.474-14.45,74.71-22.518,90.816zm-26.025-215.874c0-55.818 32.839-104.103 80.208-126.571 43.102,45.06 47.56,85.123 52.265,127.471 4.635,41.706 9.425,84.755 52.229,131.781-14.044,4.744-29.078,7.318-44.702,7.318-77.196,0.001-140-62.803-140-139.999zm199.596,126.662c-43.056-45.038-47.511-85.086-52.215-127.418-4.636-41.728-9.429-84.8-52.295-131.855 14.104-4.79 29.212-7.389 44.915-7.389 77.196,0 140,62.804 140,140-0.001,55.894-32.931,104.235-80.405,126.662zm65.582-217.956c-1.165-1.592-2.354-3.165-3.576-4.711l48.771-32.768c3.438-2.311 4.353-6.97 2.043-10.408-2.311-3.438-6.971-4.353-10.408-2.043l-50.352,33.83c-1.398-1.453-2.824-2.879-4.277-4.277l33.83-50.358c2.31-3.438 1.395-8.099-2.043-10.408-3.438-2.309-8.098-1.395-10.408,2.043l-32.769,48.778c-1.546-1.223-3.12-2.412-4.713-3.576-2.172-36.392 14.484-74.49 22.535-90.557 5.089,3.491 9.483,4.941 13.511,6.27 5.14,1.694 9.199,3.033 15.181,9.016 5.982,5.981 7.321,10.041 9.017,15.181 1.946,5.899 4.151,12.586 12.655,21.091 8.504,8.503 15.19,10.708 21.09,12.654 5.14,1.695 9.199,3.034 15.182,9.017 5.981,5.981 7.32,10.041 9.015,15.181 1.329,4.027 2.778,8.422 6.27,13.511-16.072,8.05-54.167,24.708-90.554,22.534z"/>
  </g>
</svg>
