<?xml version='1.0' encoding='iso-8859-1'?>
<svg version="1.1" xmlns="http://www.w3.org/2000/svg" viewBox="0 0 470 470" xmlns:xlink="http://www.w3.org/1999/xlink" enable-background="new 0 0 470 470">
  <g>
    <path d="m390.26,124.943h-5.684c-3.682-38.767-35.59-69.422-74.891-71.134-10.613-31.956-40.526-53.809-74.685-53.809-34.159,0-64.072,21.853-74.686,53.81-39.301,1.712-71.209,32.367-74.891,71.134h-5.683c-4.142,0-7.5,3.357-7.5,7.5 0,38.602 29.818,70.371 67.63,73.483l23.707,109.354c6.694,30.877 32.952,53.897 63.923,57.136v56.931c-22.62,1.815-44.017,11.772-59.604,27.947-2.087,2.166-2.678,5.37-1.501,8.139 1.177,2.769 3.894,4.565 6.902,4.565h123.405c3.008,0 5.725-1.797 6.902-4.565 1.177-2.769 0.586-5.973-1.501-8.139-15.586-16.175-36.983-26.132-59.604-27.947v-56.931c30.971-3.239 57.229-26.26 63.923-57.136l23.707-109.354c37.813-3.112 67.63-34.882 67.63-73.483 0.001-4.143-3.357-7.501-7.499-7.501zm-155.26-109.943c26.251,0 49.403,15.94 59.031,39.682-17.801,2.802-34.286,11.668-46.47,25.278-2.763,3.087-2.5,7.828 0.585,10.591 3.087,2.763 7.829,2.502 10.59-0.585 12.086-13.501 29.394-21.244 47.484-21.244 32.597,0 59.539,24.609 63.265,56.222h-127.351c-3.406-35.853-30.95-64.773-66.161-70.273 9.632-23.736 32.78-39.671 59.027-39.671zm-71.222,53.722c32.598,0 59.54,24.609 63.265,56.222h-126.53c3.726-31.614 30.668-56.222 63.265-56.222zm31.033,386.278c11.994-7.082 25.918-10.956 40.189-10.956s28.196,3.874 40.189,10.956h-80.378zm129.216-263.823c-3.53-2.84217e-14-6.582,2.461-7.33,5.911l-24.934,115.016c-5.744,26.492-29.617,45.721-56.764,45.721s-51.02-19.229-56.764-45.721l-24.934-115.016c-0.748-3.45-3.8-5.911-7.33-5.911-29.845,0-54.563-22.376-58.256-51.233h294.567c-3.692,28.857-28.409,51.233-58.255,51.233z"/>
    <path d="m177.666,168.677c0-4.143-3.358-7.5-7.5-7.5h-24.193c-5.763,0-11.326-1.708-16.086-4.939-3.426-2.324-8.09-1.432-10.417,1.994-2.326,3.427-1.434,8.091 1.994,10.418 7.255,4.924 15.731,7.527 24.51,7.527h24.193c4.141,0 7.499-3.358 7.499-7.5z"/>
    <path d="m235,327.824c-13.129,0-24.671-9.285-27.445-22.077l-17.053-78.66c-0.877-4.048-4.872-6.621-8.918-5.741-4.048,0.878-6.619,4.871-5.741,8.919l17.053,78.66c4.258,19.643 21.966,33.899 42.104,33.899 4.142,0 7.5-3.357 7.5-7.5s-3.358-7.5-7.5-7.5z"/>
    <path d="m293.027,191.177h-116.054c-4.142,0-7.5,3.357-7.5,7.5s3.358,7.5 7.5,7.5h116.055c4.142,0 7.5-3.357 7.5-7.5s-3.359-7.5-7.501-7.5z"/>
  </g>
</svg>
