<?xml version="1.0" encoding="iso-8859-1"?>
<!-- Generator: Adobe Illustrator 16.0.0, SVG Export Plug-In . SVG Version: 6.00 Build 0)  -->
<!DOCTYPE svg PUBLIC "-//W3C//DTD SVG 1.1//EN" "http://www.w3.org/Graphics/SVG/1.1/DTD/svg11.dtd">
<svg version="1.1" id="Capa_1" xmlns="http://www.w3.org/2000/svg" xmlns:xlink="http://www.w3.org/1999/xlink" x="0px" y="0px"
	 width="554.214px" height="554.214px" viewBox="0 0 554.214 554.214" style="enable-background:new 0 0 554.214 554.214;"
	 xml:space="preserve">
<g>
	<g>
		<path d="M34.65,366.358c21.42,20.933,80.593-13.454,126.502-48.653c16.811,48.242,62.577,82.916,116.548,82.916
			c53.703,0,99.278-34.339,116.289-82.209c45.776,34.951,104.299,68.735,125.575,47.946c27.894-28.688-15.94-59.766-15.94-59.766
			c47.812-15.94,50.203-35.859,50.203-35.859c5.574-36.653-50.997-35.859-50.997-35.859c43.031-28.688,29.481-50.997,29.481-50.997
			c-34.971-42.744-100.703-3.777-146.728,33.172c-21.104-37.839-61.486-63.457-107.894-63.457
			c-46.674,0-87.267,25.896-108.276,64.098c-46.053-37.141-112.34-76.806-147.511-33.822c0,0-13.55,22.309,29.481,50.997
			c0,0-56.581-0.793-50.997,35.859c0,0,2.391,19.918,50.203,35.859C50.591,306.593,6.766,337.671,34.65,366.358z M225.929,237.255
			c24.356-22.329,52.269,10.366,52.269,10.366h0.201c0,0,27.913-32.694,52.269-10.366s3.729,71.011-51.59,93.339l-1.979-0.191
			C221.798,308.065,201.563,259.584,225.929,237.255z"/>
	</g>
</g>
<g>
</g>
<g>
</g>
<g>
</g>
<g>
</g>
<g>
</g>
<g>
</g>
<g>
</g>
<g>
</g>
<g>
</g>
<g>
</g>
<g>
</g>
<g>
</g>
<g>
</g>
<g>
</g>
<g>
</g>
</svg>
